<?xml version="1.0" encoding="utf-8"?>
<!DOCTYPE svg PUBLIC "-//W3C//DTD SVG 1.1//EN" "http://www.w3.org/Graphics/SVG/1.1/DTD/svg11.dtd">
<!-- exported from Silhouette Studio® Business Edition V4.5.812ssbe -->
<svg version="1.1" xmlns="http://www.w3.org/2000/svg" xmlns:xlink="http://www.w3.org/1999/xlink" width="98.78062mm" height="98.78062mm" viewBox="0 0 98.78062 98.78062">
<defs>
<path id="path_fcdfeb428de05fb482ad4c36f2bde6fc" d="M 39.10579 89.14348 C 38.97288 89.01076 39.04321 88.81012 39.22263 88.81012 C 39.47704 88.81012 39.5588 88.91675 39.42649 89.07594 C 39.30325 89.22422 39.20695 89.2445 39.10579 89.14348 Z M 39.89047 89.11041 C 39.80764 88.97659 39.91859 88.81012 40.09061 88.81012 C 40.32219 88.81012 40.35882 88.99356 40.14957 89.10539 C 40.01882 89.17527 39.93166 89.17696 39.89047 89.11041 Z M 42.10759 86.74057 C 41.9948 86.62794 42.03889 86.50994 42.19377 86.50994 C 42.2764 86.50994 42.344 86.55228 42.344 86.60404 C 42.344 86.73015 42.18761 86.82047 42.10759 86.74057 Z M 35.15336 79.59615 C 35.02263 79.51357 36.75837 54.40627 37.00151 53.50734 C 37.08334 53.20481 37.22 52.68727 37.3052 52.35725 C 37.3904 52.02723 37.49989 51.71445 37.54851 51.66219 C 37.59713 51.60994 37.63691 51.46634 37.63691 51.34307 C 37.63691 51.21981 37.68198 51.09114 37.73706 51.05715 C 37.79214 51.02316 37.83721 50.89292 37.83721 50.76774 C 37.83721 50.52239 38.16365 49.44535 38.38602 48.95698 C 38.46116 48.79197 38.61937 48.40944 38.73759 48.10691 C 38.85581 47.80439 39.01023 47.46687 39.08075 47.35686 C 39.15126 47.24685 39.26656 46.97683 39.33695 46.75681 C 39.4583 46.37756 40.35635 44.58235 40.53567 44.36056 C 40.58189 44.30339 40.80317 43.90517 41.02744 43.47565 C 41.25169 43.04612 41.56669 42.52858 41.72742 42.32556 C 41.88816 42.12254 42.11759 41.78203 42.23725 41.56887 C 42.35691 41.35572 42.71156 40.84501 43.02535 40.43396 C 43.33915 40.02292 43.75362 39.47328 43.94641 39.21255 C 44.8153 38.03745 49.05278 33.70578 49.33344 33.70578 C 49.38141 33.70578 49.64239 33.49076 49.9134 33.22796 C 50.18441 32.96516 50.58641 32.60279 50.80675 32.42271 L 51.20735 32.09527 L 50.80675 32.15779 C 50.00651 32.28268 46.99574 32.32493 46.35004 32.22033 C 45.992 32.16233 45.36105 32.06387 44.94792 32.00153 C 43.7637 31.82283 43.05823 31.61905 42.17133 31.19949 C 41.65499 30.95523 41.2813 30.83506 41.16982 30.87742 C 41.07199 30.91459 40.67245 31.16114 40.28194 31.42532 C 39.89143 31.68949 39.53553 31.90564 39.49105 31.90564 C 39.44657 31.90564 39.22527 32.05652 38.99926 32.24094 C 38.04334 33.02094 36.56096 34.0793 36.24967 34.20402 C 35.69341 34.4269 34.31342 34.36622 33.31245 34.07488 C 32.83437 33.93572 32.29355 33.75463 32.11064 33.67244 C 31.92773 33.59026 31.59782 33.4679 31.37749 33.40052 C 30.75695 33.21078 29.54523 32.54148 29.00584 32.09052 C 28.7377 31.86634 28.40304 31.48651 28.26217 31.24647 C 27.96858 30.74622 27.95678 30.56375 27.9974 27.15318 L 28.02244 25.05092 L 28.48836 24.80299 C 28.74461 24.66663 29.04882 24.46363 29.16437 24.35189 C 29.27993 24.24014 29.68995 23.92546 30.07553 23.6526 C 30.88162 23.08215 32.65048 21.70075 33.3712 21.07883 C 33.6415 20.84559 34.02836 20.54224 34.2309 20.40473 C 34.43343 20.26722 34.92743 19.86219 35.32867 19.50466 C 37.31283 17.73663 37.94159 17.13844 38.56315 16.42746 C 39.10276 15.81021 39.23904 15.58819 39.23917 15.32612 C 39.23961 14.40495 39.87341 13.84322 41.74105 13.10873 C 42.44676 12.83119 43.07454 12.60412 43.13612 12.60412 C 43.19769 12.60412 43.32633 12.56198 43.42198 12.51048 C 43.62747 12.39985 44.51018 12.00026 45.15424 11.72632 L 45.61095 11.53208 L 45.4238 10.49297 C 45.04734 8.402712 44.93041 7.819745 44.744 7.103684 C 44.38552 5.726603 44.32194 5.304208 44.44996 5.150169 C 44.52258 5.062787 44.6493 5.022041 44.73862 5.057347 C 44.82619 5.091959 45.34798 5.163331 45.89813 5.215951 C 46.44829 5.268571 47.23697 5.381239 47.65077 5.466325 C 49.13197 5.770891 51.55322 6.852287 52.34993 7.565095 C 52.86152 8.022806 52.95236 8.046373 54.78951 8.198036 C 55.4377 8.251547 56.27146 8.368665 56.6423 8.458298 C 58.12656 8.817052 60.55867 9.906116 61.57296 10.66619 C 61.931 10.93449 62.33661 11.22911 62.47431 11.32092 C 63.19431 11.8009 65.10564 13.90882 65.72704 14.9082 C 65.87961 15.15357 66.17292 15.57935 66.37883 15.85437 C 66.58475 16.1294 66.92313 16.66944 67.13076 17.05447 C 67.3384 17.4395 67.63251 17.97954 67.78434 18.25456 C 68.4011 19.37178 68.50683 19.62101 69.53623 22.38441 C 69.79502 23.07912 70.09824 24.35068 70.28041 25.50513 C 70.34551 25.91767 70.44084 26.50271 70.49226 26.80524 C 70.80489 28.64441 70.80228 31.73221 70.48622 33.9558 C 70.11539 36.56469 69.87393 37.81696 69.53168 38.90619 C 69.19223 39.9865 68.96968 40.65939 68.88667 40.85635 C 68.84032 40.96635 68.74525 41.28138 68.6754 41.5564 C 68.60555 41.83142 68.34933 42.55093 68.106 43.15531 C 67.86268 43.75969 67.59946 44.44284 67.52106 44.67342 C 66.84201 46.67067 66.86849 52.84717 67.57803 57.95769 C 67.80676 59.60518 68.53974 62.0301 68.5867 63.25578 C 68.58865 63.30676 70.11121 69.64117 71.37798 79.47039 C 71.40594 79.68729 35.31812 79.70022 35.15336 79.59615 Z" fill-rule="evenodd" fill="#000000" fill-opacity="1" stroke="#FF0000" stroke-opacity="1" stroke-width="0.1" stroke-linecap="round" stroke-linejoin="round"/>
</defs>
<g>
<use xlink:href="#path_fcdfeb428de05fb482ad4c36f2bde6fc"/>
</g>
</svg>